<?xml version="1.0" encoding="UTF-8" standalone="no"?>
<!-- Created with Inkscape (http://www.inkscape.org/) -->

<svg
   xmlns:dc="http://purl.org/dc/elements/1.1/"
   xmlns:cc="http://creativecommons.org/ns#"
   xmlns:rdf="http://www.w3.org/1999/02/22-rdf-syntax-ns#"
   xmlns:svg="http://www.w3.org/2000/svg"
   xmlns="http://www.w3.org/2000/svg"
   xmlns:sodipodi="http://sodipodi.sourceforge.net/DTD/sodipodi-0.dtd"
   xmlns:inkscape="http://www.inkscape.org/namespaces/inkscape"
   width="60"
   height="60"
   id="svg4726"
   version="1.1"
   inkscape:version="0.48.3.1 r9886"
   sodipodi:docname="grey.svg">
  <defs
     id="defs4728">
    <clipPath
       clipPathUnits="userSpaceOnUse"
       id="clipPath1070">
      <path
         inkscape:connector-curvature="0"
         d="m 0,86.771 682.212,0 L 682.212,0 0,0 0,86.771 z"
         id="path1072" />
    </clipPath>
    <clipPath
       clipPathUnits="userSpaceOnUse"
       id="clipPath1038">
      <path
         inkscape:connector-curvature="0"
         d="m 0,86.771 682.212,0 L 682.212,0 0,0 0,86.771 z"
         id="path1040" />
    </clipPath>
    <clipPath
       clipPathUnits="userSpaceOnUse"
       id="clipPath992">
      <path
         inkscape:connector-curvature="0"
         d="m 0,86.771 682.212,0 L 682.212,0 0,0 0,86.771 z"
         id="path994" />
    </clipPath>
    <clipPath
       clipPathUnits="userSpaceOnUse"
       id="clipPath948">
      <path
         inkscape:connector-curvature="0"
         d="m 0,86.771 682.212,0 L 682.212,0 0,0 0,86.771 z"
         id="path950" />
    </clipPath>
    <clipPath
       clipPathUnits="userSpaceOnUse"
       id="clipPath904">
      <path
         inkscape:connector-curvature="0"
         d="m 0,86.771 682.212,0 L 682.212,0 0,0 0,86.771 z"
         id="path906" />
    </clipPath>
    <clipPath
       clipPathUnits="userSpaceOnUse"
       id="clipPath860">
      <path
         inkscape:connector-curvature="0"
         d="m 0,86.771 682.212,0 L 682.212,0 0,0 0,86.771 z"
         id="path862" />
    </clipPath>
    <clipPath
       clipPathUnits="userSpaceOnUse"
       id="clipPath828">
      <path
         inkscape:connector-curvature="0"
         d="m 0,86.771 682.212,0 L 682.212,0 0,0 0,86.771 z"
         id="path830" />
    </clipPath>
    <clipPath
       clipPathUnits="userSpaceOnUse"
       id="clipPath800">
      <path
         inkscape:connector-curvature="0"
         d="m 403.282,63.691 c -4.176,0 -7.562,-3.685 -7.562,-8.231 l 0,0 -5.578,-24.283 c 0,-4.547 3.386,-8.232 7.564,-8.232 l 0,0 19.037,0 c 4.178,0 7.565,3.685 7.565,8.232 l 0,0 -5.576,24.283 c 0,4.546 -3.387,8.231 -7.564,8.231 l 0,0 -7.886,0 z"
         id="path802" />
    </clipPath>
  </defs>
  <sodipodi:namedview
     id="base"
     pagecolor="#ffffff"
     bordercolor="#666666"
     borderopacity="1.0"
     inkscape:pageopacity="0.0"
     inkscape:pageshadow="2"
     inkscape:zoom="1.4"
     inkscape:cx="44.127044"
     inkscape:cy="48.47996"
     inkscape:document-units="px"
     inkscape:current-layer="layer1"
     showgrid="false"
     inkscape:window-width="1366"
     inkscape:window-height="691"
     inkscape:window-x="0"
     inkscape:window-y="24"
     inkscape:window-maximized="1" />
  <metadata
     id="metadata4731">
    <rdf:RDF>
      <cc:Work
         rdf:about="">
        <dc:format>image/svg+xml</dc:format>
        <dc:type
           rdf:resource="http://purl.org/dc/dcmitype/StillImage" />
        <dc:title />
      </cc:Work>
    </rdf:RDF>
  </metadata>
  <g
     inkscape:label="Layer 1"
     inkscape:groupmode="layer"
     id="layer1"
     transform="translate(0,-992.36218)">
    <rect
       style="fill:#008000"
       id="rect3133"
       width="56.42857"
       height="57.142857"
       x="2.1428571"
       y="1.4285715"
       transform="translate(0,992.36218)" />
  </g>
  <g
     inkscape:groupmode="layer"
     id="layer2"
     inkscape:label="background">
    <g
       transform="matrix(0.98482226,0,0,-1.1291065,-376.6665,78.89942)"
       id="g796">
      <g
         id="g798"
         clip-path="url(#clipPath800)">
        <path
           inkscape:connector-curvature="0"
           d="m 426.382,22.905 -36.866,0 0,5.437 36.866,0 0,-5.437 z"
           style="fill:#000000;fill-opacity:1;fill-rule:nonzero;stroke:none"
           id="path804" />
        <path
           inkscape:connector-curvature="0"
           d="m 426.382,26.86 -36.865,0 0,5.438 36.865,0 0,-5.438 z"
           style="fill:#1a1a1a;fill-opacity:1;fill-rule:nonzero;stroke:none"
           id="path806" />
        <path
           inkscape:connector-curvature="0"
           d="m 426.382,30.815 -36.866,0 0,5.438 36.866,0 0,-5.438 z"
           style="fill:#333333;fill-opacity:1;fill-rule:nonzero;stroke:none"
           id="path808" />
        <path
           inkscape:connector-curvature="0"
           d="m 426.382,34.77 -36.865,0 0,5.438 36.865,0 0,-5.438 z"
           style="fill:#4d4d4d;fill-opacity:1;fill-rule:nonzero;stroke:none"
           id="path810" />
        <path
           inkscape:connector-curvature="0"
           d="m 426.382,38.726 -36.866,0 0,5.437 36.866,0 0,-5.437 z"
           style="fill:#666666;fill-opacity:1;fill-rule:nonzero;stroke:none"
           id="path812" />
        <path
           inkscape:connector-curvature="0"
           d="m 426.382,42.68 -36.865,0 0,5.438 36.865,0 0,-5.438 z"
           style="fill:#808080;fill-opacity:1;fill-rule:nonzero;stroke:none"
           id="path814" />
        <path
           inkscape:connector-curvature="0"
           d="m 426.382,46.636 -36.865,0 0,5.438 36.865,0 0,-5.438 z"
           style="fill:#999999;fill-opacity:1;fill-rule:nonzero;stroke:none"
           id="path816" />
        <path
           inkscape:connector-curvature="0"
           d="m 426.382,50.591 -36.865,0 0,5.438 36.865,0 0,-5.438 z"
           style="fill:#b2b2b2;fill-opacity:1;fill-rule:nonzero;stroke:none"
           id="path818" />
        <path
           inkscape:connector-curvature="0"
           d="m 426.382,54.546 -36.865,0 0,5.438 36.865,0 0,-5.438 z"
           style="fill:#cccccc;fill-opacity:1;fill-rule:nonzero;stroke:none"
           id="path820" />
        <path
           inkscape:connector-curvature="0"
           d="m 426.382,58.502 -36.865,0 0,5.437 36.865,0 0,-5.437 z"
           style="fill:#e6e6e6;fill-opacity:1;fill-rule:nonzero;stroke:none"
           id="path822" />
      </g>
    </g>
    <g
       transform="matrix(0.98482226,0,0,-1.1291065,-376.6665,78.89942)"
       id="g824">
      <g
         id="g826"
         clip-path="url(#clipPath828)">
        <path
           inkscape:connector-curvature="0"
           d="m 438.627,47.156 -10.157,0 0,2.189 10.157,0 0,-2.189 z"
           style="fill:#ffffff;fill-opacity:1;fill-rule:nonzero;stroke:none"
           id="path832" />
        <path
           inkscape:connector-curvature="0"
           d="m 438.549,33.734 -10.157,0 0,2.189 10.157,0 0,-2.189 z"
           style="fill:#ffffff;fill-opacity:1;fill-rule:nonzero;stroke:none"
           id="path834" />
      </g>
    </g>
    <g
       transform="matrix(0.98482226,0,0,-1.1291065,-376.6665,78.89942)"
       id="g856">
      <g
         id="g858"
         clip-path="url(#clipPath860)">
        <g
           id="g864"
           transform="translate(435.1831,40.7339)">
          <path
             inkscape:connector-curvature="0"
             d="m 0,0 -3.27,0 0,-0.5 3.272,0 L 0,0 z"
             style="fill:#000000;fill-opacity:1;fill-rule:nonzero;stroke:none"
             id="path866" />
        </g>
        <g
           id="g868"
           transform="translate(435.1812,43.1509)">
          <path
             inkscape:connector-curvature="0"
             d="m 0,0 -3.268,0 0,-0.5 3.27,0 L 0,0 z"
             style="fill:#000000;fill-opacity:1;fill-rule:nonzero;stroke:none"
             id="path870" />
        </g>
        <g
           id="g872"
           transform="translate(435.1831,38.0518)">
          <path
             inkscape:connector-curvature="0"
             d="m 0,0 -3.27,0 0,-0.5 3.272,0 L 0,0 z"
             style="fill:#000000;fill-opacity:1;fill-rule:nonzero;stroke:none"
             id="path874" />
        </g>
        <g
           id="g876"
           transform="translate(435.1831,35.0776)">
          <path
             inkscape:connector-curvature="0"
             d="m 0,0 -3.27,0 0,-0.5 3.272,0 L 0,0 z"
             style="fill:#000000;fill-opacity:1;fill-rule:nonzero;stroke:none"
             id="path878" />
        </g>
      </g>
    </g>
    <g
       transform="matrix(0.98482226,0,0,-1.1291065,-376.6665,78.89942)"
       id="g900">
      <g
         id="g902"
         clip-path="url(#clipPath904)">
        <g
           id="g908"
           transform="translate(435.1831,29.7339)">
          <path
             inkscape:connector-curvature="0"
             d="m 0,0 -3.27,0 0,-0.5 3.272,0 L 0,0 z"
             style="fill:#000000;fill-opacity:1;fill-rule:nonzero;stroke:none"
             id="path910" />
        </g>
        <g
           id="g912"
           transform="translate(435.1812,32.1509)">
          <path
             inkscape:connector-curvature="0"
             d="m 0,0 -3.268,0 0,-0.5 3.27,0 L 0,0 z"
             style="fill:#000000;fill-opacity:1;fill-rule:nonzero;stroke:none"
             id="path914" />
        </g>
        <g
           id="g916"
           transform="translate(435.1831,27.0518)">
          <path
             inkscape:connector-curvature="0"
             d="m 0,0 -3.27,0 0,-0.5 3.272,0 L 0,0 z"
             style="fill:#000000;fill-opacity:1;fill-rule:nonzero;stroke:none"
             id="path918" />
        </g>
        <g
           id="g920"
           transform="translate(435.1831,24.0776)">
          <path
             inkscape:connector-curvature="0"
             d="m 0,0 -3.27,0 0,-0.5 3.272,0 L 0,0 z"
             style="fill:#000000;fill-opacity:1;fill-rule:nonzero;stroke:none"
             id="path922" />
        </g>
      </g>
    </g>
    <g
       transform="matrix(0.98482226,0,0,-1.1291065,-376.6665,78.89942)"
       id="g944">
      <g
         id="g946"
         clip-path="url(#clipPath948)">
        <g
           id="g952"
           transform="translate(435.1831,51.1787)">
          <path
             inkscape:connector-curvature="0"
             d="m 0,0 -3.27,0 0,-0.5 3.272,0 L 0,0 z"
             style="fill:#000000;fill-opacity:1;fill-rule:nonzero;stroke:none"
             id="path954" />
        </g>
        <g
           id="g956"
           transform="translate(435.1812,53.5957)">
          <path
             inkscape:connector-curvature="0"
             d="m 0,0 -3.268,0 0,-0.5 3.27,0 L 0,0 z"
             style="fill:#000000;fill-opacity:1;fill-rule:nonzero;stroke:none"
             id="path958" />
        </g>
        <g
           id="g960"
           transform="translate(435.1831,48.4966)">
          <path
             inkscape:connector-curvature="0"
             d="m 0,0 -3.27,0 0,-0.5 3.272,0 L 0,0 z"
             style="fill:#000000;fill-opacity:1;fill-rule:nonzero;stroke:none"
             id="path962" />
        </g>
        <g
           id="g964"
           transform="translate(435.1831,45.5225)">
          <path
             inkscape:connector-curvature="0"
             d="m 0,0 -3.27,0 0,-0.5 3.272,0 L 0,0 z"
             style="fill:#000000;fill-opacity:1;fill-rule:nonzero;stroke:none"
             id="path966" />
        </g>
      </g>
    </g>
    <g
       transform="matrix(0.98482226,0,0,-1.1291065,-376.6665,78.89942)"
       id="g988">
      <g
         id="g990"
         clip-path="url(#clipPath992)">
        <g
           id="g996"
           transform="translate(435.1831,61.8867)">
          <path
             inkscape:connector-curvature="0"
             d="m 0,0 -3.27,0 0,-0.5 3.272,0 L 0,0 z"
             style="fill:#000000;fill-opacity:1;fill-rule:nonzero;stroke:none"
             id="path998" />
        </g>
        <g
           id="g1000"
           transform="translate(435.1812,64.3037)">
          <path
             inkscape:connector-curvature="0"
             d="m 0,0 -3.268,0 0,-0.5 3.27,0 L 0,0 z"
             style="fill:#000000;fill-opacity:1;fill-rule:nonzero;stroke:none"
             id="path1002" />
        </g>
        <g
           id="g1004"
           transform="translate(435.1831,59.2046)">
          <path
             inkscape:connector-curvature="0"
             d="m 0,0 -3.27,0 0,-0.5 3.272,0 L 0,0 z"
             style="fill:#000000;fill-opacity:1;fill-rule:nonzero;stroke:none"
             id="path1006" />
        </g>
        <g
           id="g1008"
           transform="translate(435.1831,56.2305)">
          <path
             inkscape:connector-curvature="0"
             d="m 0,0 -3.27,0 0,-0.5 3.272,0 L 0,0 z"
             style="fill:#000000;fill-opacity:1;fill-rule:nonzero;stroke:none"
             id="path1010" />
        </g>
        <path
           inkscape:connector-curvature="0"
           d="m 438.627,60.635 -10.157,0 0,2.189 10.157,0 0,-2.189 z"
           style="fill:#ffffff;fill-opacity:1;fill-rule:nonzero;stroke:none"
           id="path1012" />
      </g>
    </g>
    <g
       transform="matrix(0.98482226,0,0,-1.1291065,-376.6665,78.89942)"
       id="g1034">
      <g
         id="g1036"
         clip-path="url(#clipPath1038)">
        <g
           id="g1042"
           transform="translate(437.2827,34.8286)">
          <path
             inkscape:connector-curvature="0"
             d="M 0,0 -7.5,0"
             style="fill:none;stroke:#000000;stroke-width:0.5;stroke-linecap:butt;stroke-linejoin:miter;stroke-miterlimit:10;stroke-opacity:1;stroke-dasharray:none"
             id="path1044" />
        </g>
      </g>
    </g>
    <g
       transform="matrix(0.98482226,0,0,-1.1291065,-376.6665,78.89942)"
       id="g1066">
      <g
         id="g1068"
         clip-path="url(#clipPath1070)">
        <g
           id="g1074"
           transform="translate(437.2993,48.2505)">
          <path
             inkscape:connector-curvature="0"
             d="M 0,0 -7.5,0"
             style="fill:none;stroke:#000000;stroke-width:0.5;stroke-linecap:butt;stroke-linejoin:miter;stroke-miterlimit:10;stroke-opacity:1;stroke-dasharray:none"
             id="path1076" />
        </g>
      </g>
    </g>
  </g>
</svg>
