<?xml version="1.0" encoding="UTF-8" standalone="no"?>
<!-- Created with Inkscape (http://www.inkscape.org/) -->

<svg
   xmlns:dc="http://purl.org/dc/elements/1.1/"
   xmlns:cc="http://creativecommons.org/ns#"
   xmlns:rdf="http://www.w3.org/1999/02/22-rdf-syntax-ns#"
   xmlns:svg="http://www.w3.org/2000/svg"
   xmlns="http://www.w3.org/2000/svg"
   xmlns:sodipodi="http://sodipodi.sourceforge.net/DTD/sodipodi-0.dtd"
   xmlns:inkscape="http://www.inkscape.org/namespaces/inkscape"
   width="210mm"
   height="297mm"
   id="svg4777"
   version="1.1"
   inkscape:version="0.48.2 r9819"
   sodipodi:docname="Documento nuevo 6">
  <defs
     id="defs4779" />
  <sodipodi:namedview
     id="base"
     pagecolor="#ffffff"
     bordercolor="#666666"
     borderopacity="1.0"
     inkscape:pageopacity="0.0"
     inkscape:pageshadow="2"
     inkscape:zoom="3.959798"
     inkscape:cx="342.03036"
     inkscape:cy="538.96399"
     inkscape:document-units="px"
     inkscape:current-layer="layer1"
     showgrid="false"
     inkscape:window-width="1280"
     inkscape:window-height="750"
     inkscape:window-x="-8"
     inkscape:window-y="-8"
     inkscape:window-maximized="1" />
  <metadata
     id="metadata4782">
    <rdf:RDF>
      <cc:Work
         rdf:about="">
        <dc:format>image/svg+xml</dc:format>
        <dc:type
           rdf:resource="http://purl.org/dc/dcmitype/StillImage" />
        <dc:title></dc:title>
      </cc:Work>
    </rdf:RDF>
  </metadata>
  <g
     inkscape:label="Capa 1"
     inkscape:groupmode="layer"
     id="layer1">
    <g
       id="g4758"
       transform="translate(322.47483,505.25844)">
      <g
         id="g4750">
        <path
           sodipodi:type="arc"
           style="fill:#b3b3b3;fill-opacity:1;fill-rule:nonzero;stroke:#000000;stroke-width:0.5;stroke-linecap:round;stroke-linejoin:round;stroke-miterlimit:4;stroke-opacity:1;stroke-dasharray:none"
           id="path3073"
           sodipodi:cx="51.853813"
           sodipodi:cy="29.480932"
           sodipodi:rx="26.21822"
           sodipodi:ry="25.519068"
           d="M 78.072033,29.480932 C 78.072033,43.574724 66.333736,55 51.853813,55 37.37389,55 25.635593,43.574724 25.635593,29.480932 c 0,-14.093792 11.738297,-25.5190675 26.21822,-25.5190675 14.479923,0 26.21822,11.4252755 26.21822,25.5190675 z"
           transform="translate(-24.470339,-2.0974576)" />
        <g
           id="g4728">
          <path
             transform="matrix(1.30625,0,0,1,-15.540122,-1.1652542)"
             d="m 51.504236,28.78178 c 0,10.61861 -8.347233,19.226694 -18.644068,19.226694 -10.296834,0 -18.644067,-8.608084 -18.644067,-19.226694 0,-10.61861 8.347233,-19.2266939 18.644067,-19.2266939 10.296835,0 18.644068,8.6080839 18.644068,19.2266939 z"
             sodipodi:ry="19.226694"
             sodipodi:rx="18.644068"
             sodipodi:cy="28.78178"
             sodipodi:cx="32.860168"
             id="path3857"
             style="fill:#00ff00;fill-opacity:1;fill-rule:nonzero;stroke:#000000;stroke-width:0.43747866;stroke-linecap:round;stroke-linejoin:round;stroke-miterlimit:4;stroke-opacity:1;stroke-dasharray:none"
             sodipodi:type="arc" />
        </g>
        <path
           style="fill:none;stroke:#000000;stroke-width:0.5;stroke-linecap:butt;stroke-linejoin:miter;stroke-miterlimit:4;stroke-opacity:1;stroke-dasharray:none"
           d="M 27.733051,10.720339 27.5,44.512712"
           id="path3859"
           inkscape:connector-curvature="0" />
        <path
           style="fill:none;stroke:#000000;stroke-width:0.5;stroke-linecap:butt;stroke-linejoin:miter;stroke-miterlimit:4;stroke-opacity:1;stroke-dasharray:none"
           d="m 4.6610169,27.5 45.4449151,0"
           id="path3869"
           inkscape:connector-curvature="0" />
        <path
           style="fill:none;stroke:#000000;stroke-width:0.30000001;stroke-linecap:butt;stroke-linejoin:miter;stroke-miterlimit:4;stroke-opacity:1;stroke-dasharray:none"
           d="m 5.3601694,29.830508 5.3601696,-8.38983 4.894067,13.98305 10.254238,-22.13983 3.728813,12.118644 5.127119,-8.38983 6.059322,22.13983 7.457627,-17.012712"
           id="path4511"
           inkscape:connector-curvature="0" />
      </g>
      <g
         transform="translate(69.887905,-40.80046)"
         id="g4689">
        <path
           sodipodi:type="arc"
           style="fill:#ffffff;fill-opacity:1;stroke:#000000;stroke-width:2.46559978;stroke-miterlimit:4;stroke-opacity:1;stroke-dasharray:none"
           id="path4784"
           sodipodi:cx="267.90057"
           sodipodi:cy="153.04771"
           sodipodi:rx="60.970474"
           sodipodi:ry="58.660984"
           d="m 328.87105,153.04771 c 0,32.39757 -27.29741,58.66099 -60.97048,58.66099 -33.67306,0 -60.97047,-26.26342 -60.97047,-58.66099 0,-32.39756 27.29741,-58.66098 60.97047,-58.66098 33.67307,0 60.97048,26.26342 60.97048,58.66098 z"
           transform="matrix(0.16595974,0,0,0.15858865,-70.532171,27.086735)" />
        <path
           sodipodi:type="arc"
           style="fill:#00ff00;stroke-width:3.08004522;stroke-miterlimit:4;stroke-dasharray:none"
           id="path3015-5"
           sodipodi:cx="222.85715"
           sodipodi:cy="772.36218"
           sodipodi:rx="74.285713"
           sodipodi:ry="71.428574"
           d="m 290.18287,802.5492 c -7.38093,15.21967 -20.10277,27.45221 -35.93122,34.54925 l -31.3945,-64.73627 z"
           transform="matrix(0.1328118,0,0,0.12698989,-55.648981,-46.780147)"
           sodipodi:start="0.43633231"
           sodipodi:end="1.134464" />
        <path
           sodipodi:type="arc"
           style="fill:#00ff00;stroke-width:3.08004522;stroke-miterlimit:4;stroke-dasharray:none;display:inline"
           id="path3015-8-5"
           sodipodi:cx="222.85715"
           sodipodi:cy="772.36218"
           sodipodi:rx="74.285713"
           sodipodi:ry="71.428574"
           d="M 191.46265,837.09846 C 175.6342,830.00141 162.91236,817.76887 155.53143,802.5492 l 67.32572,-30.18702 z"
           transform="matrix(0.1328118,0,0,0.12698989,-55.540141,-46.704457)"
           sodipodi:start="2.0071286"
           sodipodi:end="2.7052603" />
        <path
           sodipodi:type="arc"
           style="fill:#00ff00;stroke-width:3.08004522;stroke-miterlimit:4;stroke-dasharray:none;display:inline"
           id="path3015-8-8-1"
           sodipodi:cx="222.85715"
           sodipodi:cy="772.36218"
           sodipodi:rx="74.285713"
           sodipodi:ry="71.428574"
           d="m 155.53143,742.17516 c 7.38093,-15.21967 20.10277,-27.4522 35.93122,-34.54925 l 31.3945,64.73627 z"
           transform="matrix(0.1328118,0,0,0.12698989,-55.634261,-46.714417)"
           sodipodi:start="3.577925"
           sodipodi:end="4.2760567" />
        <path
           sodipodi:type="arc"
           style="fill:#00ff00;stroke-width:3.08004522;stroke-miterlimit:4;stroke-dasharray:none;display:inline"
           id="path3015-8-8-2-7"
           sodipodi:cx="222.85715"
           sodipodi:cy="772.36218"
           sodipodi:rx="74.285713"
           sodipodi:ry="71.428574"
           d="m 254.25165,707.62591 c 15.82845,7.09705 28.55029,19.32958 35.93122,34.54925 l -67.32572,30.18702 z"
           transform="matrix(0.1328118,0,0,0.12698989,-55.697441,-46.576557)"
           sodipodi:start="5.1487213"
           sodipodi:end="5.846853" />
        <path
           sodipodi:type="arc"
           style="fill:#ffffff;stroke-width:2.96144819;stroke-miterlimit:4;stroke-dasharray:none;display:inline"
           id="path3017-1"
           sodipodi:cx="582.85712"
           sodipodi:cy="852.36218"
           sodipodi:rx="65.714287"
           sodipodi:ry="62.857143"
           d="m 534.89075,809.39747 c 24.80734,-25.3393 66.39293,-26.64491 92.88402,-2.91616 26.49109,23.72876 27.85604,63.50628 3.04871,88.84558 -24.80733,25.33931 -66.39292,26.64492 -92.88401,2.91616 -23.00867,-20.60946 -27.47682,-53.94339 -10.64811,-79.43849"
           sodipodi:start="3.8941798"
           sodipodi:end="9.9879502"
           sodipodi:open="true"
           transform="matrix(0.13776884,0,0,0.13242216,-106.3709,-61.513277)" />
        <path
           sodipodi:type="arc"
           style="fill:#00ff00;stroke-width:3.74996233;stroke-miterlimit:4;stroke-dasharray:none"
           id="path2997-5"
           sodipodi:cx="337.14285"
           sodipodi:cy="553.79077"
           sodipodi:rx="74.285713"
           sodipodi:ry="70"
           d="m 282.92001,505.94371 c 28.04307,-28.21877 75.05287,-29.67275 104.99932,-3.24754 29.94645,26.4252 31.48944,70.72289 3.44637,98.94166 -28.04307,28.21877 -75.05287,29.67275 -104.99932,3.24755 -26.0098,-22.95145 -31.06075,-60.07332 -12.03699,-88.46559"
           sodipodi:start="3.8941798"
           sodipodi:end="9.9879502"
           sodipodi:open="true"
           transform="matrix(0.10798824,0,0,0.10536338,-62.478831,-6.99093)" />
        <path
           sodipodi:type="arc"
           style="fill:#ffffff;stroke-width:3.89652324;stroke-miterlimit:4;stroke-dasharray:none"
           id="path3001-2"
           sodipodi:cx="395.71429"
           sodipodi:cy="560.93359"
           sodipodi:rx="58.57143"
           sodipodi:ry="54.285713"
           d="m 352.96166,523.82771 c 22.11089,-21.88394 59.17631,-23.01152 82.78793,-2.5185 23.61163,20.49301 24.82822,54.84632 2.71733,76.73027 -22.11088,21.88394 -59.1763,23.01151 -82.78792,2.5185 -20.50773,-17.79908 -24.49021,-46.58747 -9.4907,-68.60597"
           sodipodi:start="3.8941798"
           sodipodi:end="9.9879502"
           sodipodi:open="true"
           transform="matrix(0.10272061,0,0,0.10259067,-66.750231,-6.218322)" />
        <path
           style="font-size:186.65841675px;font-style:normal;font-weight:normal;line-height:125%;letter-spacing:0px;word-spacing:0px;fill:#00ff00;fill-opacity:1;stroke:none;font-family:Sans"
           inkscape:connector-curvature="0"
           id="path3098-6"
           d="m -28.733695,55.393526 2.71955,-2.7986 2.833346,2.65876 1.136529,-1.169564 -2.833345,-2.65876 2.699258,-2.777714 -1.20719,-1.132806 -2.699258,2.777715 -2.83335,-2.65876 -1.13652,1.169564 2.83334,2.65876 -2.71955,2.7986 z" />
      </g>
    </g>
  </g>
</svg>
