<?xml version="1.0" encoding="UTF-8" standalone="no"?>
<!-- Created with Inkscape (http://www.inkscape.org/) -->

<svg
   xmlns:osb="http://www.openswatchbook.org/uri/2009/osb"
   xmlns:dc="http://purl.org/dc/elements/1.1/"
   xmlns:cc="http://creativecommons.org/ns#"
   xmlns:rdf="http://www.w3.org/1999/02/22-rdf-syntax-ns#"
   xmlns:svg="http://www.w3.org/2000/svg"
   xmlns="http://www.w3.org/2000/svg"
   xmlns:sodipodi="http://sodipodi.sourceforge.net/DTD/sodipodi-0.dtd"
   xmlns:inkscape="http://www.inkscape.org/namespaces/inkscape"
   width="55"
   height="55"
   viewBox="0 0 55 55"
   id="svg2"
   version="1.1"
   inkscape:version="0.48.2 r9819"
   sodipodi:docname="light.svg">
  <defs
     id="defs4">
    <linearGradient
       id="linearGradient3793"
       osb:paint="solid">
      <stop
         style="stop-color:#000000;stop-opacity:1;"
         offset="0"
         id="stop3795" />
    </linearGradient>
  </defs>
  <sodipodi:namedview
     id="base"
     pagecolor="#ffffff"
     bordercolor="#666666"
     borderopacity="1.0"
     inkscape:pageopacity="0.0"
     inkscape:pageshadow="2"
     inkscape:zoom="3.959798"
     inkscape:cx="-53.937978"
     inkscape:cy="59.207026"
     inkscape:document-units="px"
     inkscape:current-layer="g2989"
     showgrid="false"
     inkscape:snap-page="true"
     inkscape:window-width="1280"
     inkscape:window-height="750"
     inkscape:window-x="-8"
     inkscape:window-y="-8"
     inkscape:window-maximized="1"
     inkscape:snap-to-guides="false"
     inkscape:snap-grids="false" />
  <metadata
     id="metadata7">
    <rdf:RDF>
      <cc:Work
         rdf:about="">
        <dc:format>image/svg+xml</dc:format>
        <dc:type
           rdf:resource="http://purl.org/dc/dcmitype/StillImage" />
        <dc:title></dc:title>
      </cc:Work>
    </rdf:RDF>
  </metadata>
  <g
     inkscape:label="Capa 1"
     inkscape:groupmode="layer"
     id="layer1"
     style="display:inline">
    <rect
       style="fill:#ffffff;fill-opacity:1;fill-rule:nonzero;stroke:#ffd5d5;stroke-width:0;stroke-miterlimit:4;stroke-dasharray:none"
       id="rect3013"
       width="1.0101526"
       height="2.0203052"
       x="144.45181"
       y="400.30872" />
    <rect
       style="fill:#ffffff;fill-opacity:1;fill-rule:nonzero;stroke:#000000;stroke-width:0;stroke-miterlimit:4;stroke-opacity:1;stroke-dasharray:none"
       id="rect3789"
       width="106.42857"
       height="21.428572"
       x="156.42857"
       y="17.142857" />
    <g
       id="g2989"
       transform="matrix(0.05066258,0,0,-0.0358564,-5.17077,51.386494)"
       style="fill:#000000;stroke:none">
      <path
         id="path2991"
         d="m 822,1233 c -5,-10 -17,-46 -27,-81 l -18,-63 -57,7 c -81,9 -189,-12 -270,-52 -81,-41 -169,-130 -217,-221 -53,-99 -44,-106 51,-38 125,89 234,121 356,104 35,-5 68,-13 72,-17 4,-4 -4,-45 -17,-92 -14,-49 -20,-89 -15,-94 5,-5 91,29 207,82 153,70 198,95 197,109 -1,22 -230,373 -243,373 -6,0 -14,-8 -19,-17 z"
         inkscape:connector-curvature="0" />
      <path
         id="path2993"
         d="M 388,512 C 267,456 201,420 200,410 200,386 439,28 452,32 c 7,3 22,39 35,80 l 23,76 98,0 c 161,0 285,56 379,171 52,63 107,171 94,184 -4,4 -37,-13 -72,-40 -97,-73 -178,-106 -274,-111 -75,-4 -165,10 -165,26 0,4 9,39 20,77 25,86 25,105 3,104 -10,0 -102,-40 -205,-87 z"
         inkscape:connector-curvature="0" />
    </g>
  </g>
</svg>
