<?xml version="1.0" encoding="UTF-8" standalone="no"?>
<svg
   xmlns:dc="http://purl.org/dc/elements/1.1/"
   xmlns:cc="http://creativecommons.org/ns#"
   xmlns:rdf="http://www.w3.org/1999/02/22-rdf-syntax-ns#"
   xmlns:svg="http://www.w3.org/2000/svg"
   xmlns="http://www.w3.org/2000/svg"
   xmlns:sodipodi="http://sodipodi.sourceforge.net/DTD/sodipodi-0.dtd"
   xmlns:inkscape="http://www.inkscape.org/namespaces/inkscape"
   enable-background="new 0 0 55 55"
   height="55px"
   version="1.1"
   viewBox="0 0 55 55"
   width="55px"
   x="0px"
   xml:space="preserve"
   y="0px"
   id="svg2"
   inkscape:version="0.48.3.1 r9886"
   sodipodi:docname="media-audio.svg"><metadata
     id="metadata17"><rdf:RDF><cc:Work
         rdf:about=""><dc:format>image/svg+xml</dc:format><dc:type
           rdf:resource="http://purl.org/dc/dcmitype/StillImage" /><dc:title></dc:title></cc:Work></rdf:RDF></metadata><defs
     id="defs15" /><sodipodi:namedview
     pagecolor="#ffffff"
     bordercolor="#666666"
     borderopacity="1"
     objecttolerance="10"
     gridtolerance="10"
     guidetolerance="10"
     inkscape:pageopacity="0"
     inkscape:pageshadow="2"
     inkscape:window-width="1366"
     inkscape:window-height="691"
     id="namedview13"
     showgrid="false"
     inkscape:zoom="4.2909091"
     inkscape:cx="27.5"
     inkscape:cy="27.5"
     inkscape:window-x="0"
     inkscape:window-y="24"
     inkscape:window-maximized="1"
     inkscape:current-layer="layer1" /><g
     display="block"
     id="record-audio"
     style="display:block">
	<g
   display="inline"
   id="g5"
   style="display:inline">
		<polygon
   points="13.296,43.314 38.942,21.406 30.782,13.246 8.872,38.893 "
   id="polygon7"
   style="fill:#ffffff;stroke:#010101;stroke-width:3.5;stroke-linecap:round;stroke-linejoin:round" />
		<circle
   cx="37.370998"
   cy="14.759"
   r="8.757"
   id="circle9"
   sodipodi:cx="37.370998"
   sodipodi:cy="14.759"
   sodipodi:rx="8.757"
   sodipodi:ry="8.757"
   style="fill:#ffffff;stroke:#010101;stroke-width:3.5;stroke-linejoin:round" />
		<path
   d="M 10.829,40.85 C 7.222,44.457 9.344,53.996 24.161,45.446 35.687,38.912 43.122,44.297 44.464,51"
   id="path11"
   inkscape:connector-curvature="0"
   style="fill:none;stroke:#010101;stroke-width:3.5;stroke-linecap:round;stroke-linejoin:round" />
	</g>
</g><g
     inkscape:groupmode="layer"
     id="layer1"
     inkscape:label="background"><rect
       style="fill:#ff6600"
       id="rect3004"
       width="3.0296609"
       height="70.148308"
       x="-13.050847"
       y="-7.6906781" /><rect
       style="fill:#ff6600"
       id="rect3006"
       width="97.415253"
       height="3.0296609"
       x="-19.11017"
       y="57.097458" /><rect
       style="fill:#ff6600"
       id="rect3008"
       width="3.9618645"
       height="75.042374"
       x="63.622883"
       y="-7.9237289" /><rect
       style="fill:#ff6600"
       id="rect3010"
       width="109.76695"
       height="3.0296609"
       x="-23.305084"
       y="-3.7288136" /><path
       style="fill:#ff6600"
       d="m -9.9745763,28.269068 0,-28.78177986 36.7055083,0 36.705509,0 0,28.78177986 0,28.781779 -36.705509,0 -36.7055083,0 0,-28.781779 z m 55.5568303,24.0625 c 0.666416,-0.599575 0.773368,-1.08375 0.521407,-2.360439 -0.445406,-2.256874 -2.207126,-5.051524 -4.182792,-6.635242 -2.254198,-1.806993 -4.717461,-2.599431 -8.072587,-2.596965 -3.470351,0.0025 -5.44287,0.587025 -10.962689,3.248358 -6.064843,2.92411 -8.514438,3.558069 -10.361513,2.681574 -0.816513,-0.387461 -1.291029,-1.165895 -1.291029,-2.11791 l 0,-0.592378 0.717033,0.603345 c 1.079141,0.908036 1.829991,0.791825 3.407519,-0.527396 0.74368,-0.621908 5.96655,-5.078306 11.60638,-9.903111 8.599842,-7.357059 10.368537,-8.772624 10.962689,-8.773922 2.076588,-0.0045 5.058688,-1.283812 6.691162,-2.870395 2.262798,-2.199188 3.24483,-4.54014 3.24483,-7.734968 0,-4.208781 -2.10623,-7.6619418 -5.774972,-9.4680574 -3.953575,-1.9463388 -8.612979,-1.2618109 -11.912732,1.7501382 -1.953887,1.7834678 -3.318777,4.5992012 -3.335216,6.8804622 -0.0077,1.065405 -0.04387,1.112723 -7.591233,9.92644 C 7.1847728,37.928972 7.258433,37.838688 7.1169392,38.710613 c -0.1051393,0.647897 -0.00272,0.931858 0.5723363,1.58681 0.6759977,0.769919 0.6878164,0.8217 0.3393409,1.48679 -0.4682707,0.893727 -0.6464211,3.471432 -0.3226093,4.66792 0.9118958,3.36947 4.6731779,4.977798 9.2610779,3.960047 2.388811,-0.529921 3.367967,-0.923467 8.132491,-3.268646 4.336911,-2.134699 6.115767,-2.677432 8.775521,-2.677432 2.163306,0 3.64529,0.428517 5.210765,1.506701 1.501202,1.033919 2.531932,2.450302 3.266392,4.488529 0.846596,2.349421 1.972679,3.001446 3.23,1.870236 l 0,0 z"
       id="path3012"
       inkscape:connector-curvature="0" /></g></svg>