<?xml version="1.0" encoding="UTF-8" standalone="no"?>
<!-- Created with Inkscape (http://www.inkscape.org/) -->

<svg
   xmlns:dc="http://purl.org/dc/elements/1.1/"
   xmlns:cc="http://creativecommons.org/ns#"
   xmlns:rdf="http://www.w3.org/1999/02/22-rdf-syntax-ns#"
   xmlns:svg="http://www.w3.org/2000/svg"
   xmlns="http://www.w3.org/2000/svg"
   xmlns:sodipodi="http://sodipodi.sourceforge.net/DTD/sodipodi-0.dtd"
   xmlns:inkscape="http://www.inkscape.org/namespaces/inkscape"
   width="60"
   height="60"
   id="svg4482"
   version="1.1"
   inkscape:version="0.48.3.1 r9886"
   sodipodi:docname="New document 3">
  <defs
     id="defs4484" />
  <sodipodi:namedview
     id="base"
     pagecolor="#ffffff"
     bordercolor="#666666"
     borderopacity="1.0"
     inkscape:pageopacity="0.0"
     inkscape:pageshadow="2"
     inkscape:zoom="0.98994949"
     inkscape:cx="102.55941"
     inkscape:cy="53.621392"
     inkscape:document-units="px"
     inkscape:current-layer="layer1"
     showgrid="false"
     inkscape:window-width="460"
     inkscape:window-height="418"
     inkscape:window-x="688"
     inkscape:window-y="24"
     inkscape:window-maximized="0" />
  <metadata
     id="metadata4487">
    <rdf:RDF>
      <cc:Work
         rdf:about="">
        <dc:format>image/svg+xml</dc:format>
        <dc:type
           rdf:resource="http://purl.org/dc/dcmitype/StillImage" />
        <dc:title></dc:title>
      </cc:Work>
    </rdf:RDF>
  </metadata>
  <g
     inkscape:label="Layer 1"
     inkscape:groupmode="layer"
     id="layer1"
     transform="translate(0,-992.36218)">
    <g
       id="g12"
       transform="matrix(0.96151234,0,0,-0.94730177,25.130776,1024.4518)">
      <path
         inkscape:connector-curvature="0"
         d="m 0,0 15.515,9.841 -7.66,-26.398 4.534,1.158 -7.872,-8.336 -2.896,10.651 3.589,-3.473 1.274,15.399 -12.967,-7.642 6.484,32.419 9.956,0 L 0,0 z"
         style="fill:#000000;fill-opacity:1;fill-rule:nonzero;stroke:none"
         id="path14" />
    </g>
    <g
       id="g16"
       transform="matrix(0.96151234,0,0,-0.94730177,25.130776,1024.4518)">
      <path
         inkscape:connector-curvature="0"
         d="m 0,0 15.515,9.841 -7.66,-26.398 4.534,1.158 -7.872,-8.336 -2.896,10.651 3.589,-3.473 1.274,15.399 -12.967,-7.642 6.484,32.419 9.956,0 L 0,0 z"
         style="fill:none;stroke:#000000;stroke-width:1;stroke-linecap:butt;stroke-linejoin:miter;stroke-miterlimit:10;stroke-opacity:1;stroke-dasharray:none"
         id="path18" />
    </g>
    <path
       inkscape:connector-curvature="0"
       d="m 3.9768281,998.34326 52.8831789,0 0,52.10164 -52.8831789,0 0,-52.10164 z"
       style="fill:none;stroke:#000000;stroke-width:0.95438063;stroke-linecap:butt;stroke-linejoin:miter;stroke-miterlimit:10;stroke-opacity:1;stroke-dasharray:none"
       id="path20" />
    <path
       inkscape:connector-curvature="0"
       d="m 3.9768281,998.34326 4.807562,0 0,52.10164 -4.807562,0 0,-52.10164 z"
       style="fill:#000000;fill-opacity:1;fill-rule:nonzero;stroke:#000000;stroke-width:0.95438063;stroke-linecap:butt;stroke-linejoin:miter;stroke-miterlimit:10;stroke-opacity:1;stroke-dasharray:none"
       id="path22" />
    <path
       inkscape:connector-curvature="0"
       d="m 51.7313,998.35936 5.127745,0 0,52.06754 -5.127745,0 0,-52.06754 z"
       style="fill:#000000;fill-opacity:1;fill-rule:nonzero;stroke:#000000;stroke-width:0.95438063;stroke-linecap:butt;stroke-linejoin:miter;stroke-miterlimit:10;stroke-opacity:1;stroke-dasharray:none"
       id="path24" />
    <g
       id="g26"
       transform="matrix(0.96151234,0,0,-0.94730177,6.3804171,998.35976)">
      <path
         inkscape:connector-curvature="0"
         d="M 0,0 0,-2"
         style="fill:none;stroke:#e9f21a;stroke-width:5;stroke-linecap:butt;stroke-linejoin:miter;stroke-miterlimit:10;stroke-opacity:1;stroke-dasharray:none"
         id="path28" />
    </g>
    <g
       id="g30"
       transform="matrix(0.96151234,0,0,-0.94730177,6.3804171,1003.9701)">
      <path
         inkscape:connector-curvature="0"
         d="M 0,0 0,-45.099"
         style="fill:none;stroke:#e9f21a;stroke-width:5;stroke-linecap:butt;stroke-linejoin:miter;stroke-miterlimit:10;stroke-opacity:1;stroke-dasharray:3.922, 3.922;stroke-dashoffset:0"
         id="path32" />
    </g>
    <g
       id="g34"
       transform="matrix(0.96151234,0,0,-0.94730177,6.3804171,1048.5502)">
      <path
         inkscape:connector-curvature="0"
         d="M 0,0 0,-2"
         style="fill:none;stroke:#e9f21a;stroke-width:5;stroke-linecap:butt;stroke-linejoin:miter;stroke-miterlimit:10;stroke-opacity:1;stroke-dasharray:none"
         id="path36" />
    </g>
    <g
       id="g38"
       transform="matrix(0.96151234,0,0,-0.94730177,54.295461,998.46426)">
      <path
         inkscape:connector-curvature="0"
         d="M 0,0 0,-2"
         style="fill:none;stroke:#e9f21a;stroke-width:5;stroke-linecap:butt;stroke-linejoin:miter;stroke-miterlimit:10;stroke-opacity:1;stroke-dasharray:none"
         id="path40" />
    </g>
    <g
       id="g42"
       transform="matrix(0.96151234,0,0,-0.94730177,54.295461,1004.0732)">
      <path
         inkscape:connector-curvature="0"
         d="M 0,0 0,-45.1"
         style="fill:none;stroke:#e9f21a;stroke-width:5;stroke-linecap:butt;stroke-linejoin:miter;stroke-miterlimit:10;stroke-opacity:1;stroke-dasharray:3.922, 3.922;stroke-dashoffset:0"
         id="path44" />
    </g>
    <g
       id="g46"
       transform="matrix(0.96151234,0,0,-0.94730177,54.295461,1048.6542)">
      <path
         inkscape:connector-curvature="0"
         d="M 0,0 0,-2"
         style="fill:none;stroke:#e9f21a;stroke-width:5;stroke-linecap:butt;stroke-linejoin:miter;stroke-miterlimit:10;stroke-opacity:1;stroke-dasharray:none"
         id="path48" />
    </g>
  </g>
</svg>
